# xmcd
#
# Track frame offsets: 
#        150
#        12158
#        30868
#        44530
#        56709
#        74848
#        92394
#        108361
#        127411
#        168069
#        189770
#        210648
#        230714
#
# Disc length: 3235 seconds
#
# Revision: 2
# Processed by: cddbd v1.5.2PL0 Copyright (c) Steve Scherf et al.
# Submitted via: ExactAudioCopy v1.0b3
#
DISCID=ad0ca10d
DTITLE=Martinho Da Vila - Martinho E Amigos
DYEAR=2002
DGENRE=Brasil-Samba
TTITLE0=Mulata Faceira
TTITLE1=Um Caso Sério - Partideiro Famoso - Sua Filha
TTITLE2=São José De Madureira
TTITLE3=Muadiakime
TTITLE4=Bom Dia
TTITLE5=Bom Dia, Minha Flor
TTITLE6=Clube Do Samba
TTITLE7=Retrós E Linhas
TTITLE8=Trepa No Coqueiro - Poeira Do Caminho - Chora, Viola, Chora
TTITLE9=Canta Canta,Minha Gente - Casa De Bamba - O Pequeno Burguês
TTITLE10=Danadinho, Danado
TTITLE11=Roda De Samba-De-Roda
TTITLE12=Muita Luz
EXTD=
EXTT0=
EXTT1=
EXTT2=
EXTT3=
EXTT4=
EXTT5=
EXTT6=
EXTT7=
EXTT8=
EXTT9=
EXTT10=
EXTT11=
EXTT12=
PLAYORDER=
